<svg xmlns="http://www.w3.org/2000/svg" version="1.1" xmlns:xlink="http://www.w3.org/1999/xlink" viewBox="0 0 13.675550015520543 14.53261557518062"><g transform="matrix(1,0,0,1,1.1746890702602713,11.233441641639098)"><g clip-path="url(#SvgjsClipPath1001)"><g clip-path="url(#SvgjsClipPath1000c6913cb1-5245-40cf-af51-6c604d50b037)"><path d=" M 6.5166943477388015 -10.058752571378827 C 8.702938376363251 -10.058752571378827 10.475323734744741 -8.28636721299734 10.475323734744741 -6.100338960530471 C 10.476713155956368 -5.140804989990966 10.128190189466785 -4.213686334911407 9.495052650848063 -3.492684096147644 C 10.312314347292407 -4.7795995414755 10.281432348962035 -6.430343003062919 9.41660830401435 -7.68579010078496 C 8.551784259066665 -8.941237198506998 7.020425533443138 -9.558366137425908 5.5267552668314055 -9.253378959763626 C 4.033085000219673 -8.948391782101346 2.866238776186552 -7.780326046256764 2.5628120361996753 -6.286338008366467 C 2.6599113071117357 -8.38627157395797 4.393025404813235 -10.058752571378827 6.5166943477388015 -10.058752571378827 Z" fill="#ff9400" transform="matrix(1,0,0,1,0,0)" fill-rule="evenodd"></path></g><g clip-path="url(#SvgjsClipPath1000c6913cb1-5245-40cf-af51-6c604d50b037)"><path d=" M 4.84378179800278 -7.27351392930575 L 3.3941975713645 -6.037763874831587 L 2.330205338325892 -5.131504012985683 L 2.7473006509325906 -5.131504012985683 L 2.7473006509325906 -2.414450636708632 L 3.750012455217808 -2.414450636708632 L 3.750012455217808 -1.8683211818676817 L 2.201171196091643 -1.8683211818676817 L 2.201171196091643 -4.584511453514406 L 0.8508440019412467 -4.584511453514406 L 1.4138039970736185 -5.0646134041351525 L 3.0401088967718506 -6.451406768916966 L 4.666413796470082 -7.838631686013946 L 4.84378179800278 -7.989674996321597 L 5.020502471062732 -7.838631686013946 L 6.647454699233711 -6.451406768916966 L 8.836719594064313 -4.584511453514406 L 7.997350341068943 -4.584511453514406 Z M 4.066987630706292 -2.414450636708632 L 5.621439069929598 -2.414450636708632 L 5.621439069929598 -1.8683211818676817 L 4.06590874991838 -1.8683211818676817 Z M 5.938630021575664 -2.414450636708632 L 8.33849244620665 -2.414450636708632 L 8.33849244620665 -1.8683211818676817 L 5.937551140787753 -1.8683211818676817 Z" fill="#004b9e" transform="matrix(1,0,0,1,0,0)" fill-rule="nonzero"></path></g><g clip-path="url(#SvgjsClipPath1000c6913cb1-5245-40cf-af51-6c604d50b037)"><path d=" M 5.361213023885274 -7.989243444006432 L 6.830217104705967 -7.989243444006432 L 7.783516168904825 -7.176414658393689 L 6.314512088084132 -7.176414658393689 Z M 8.177091880335047 -6.840882733353123 L 9.121328345915444 -6.035390337098181 L 7.652540041252333 -6.035390337098181 L 6.708087799514353 -6.840882733353123 Z M 9.514904057345664 -5.699858412057614 L 9.727227796406705 -5.518822215846016 C 9.726570012720785 -5.203092324379215 9.68368180008046 -4.888869040567776 9.599704087275505 -4.584511453514315 L 9.353719267631643 -4.584511453514315 L 8.045899976524971 -5.699858412057614 Z M 7.3474325544308785 -7.989243444006432 L 8.728399962957969 -7.989243444006432 C 8.963450665735028 -7.747867728755287 9.162826547559963 -7.474161844340369 9.32048973936396 -7.176414658393689 L 8.301378947102483 -7.176414658393689 Z M 9.475632796665675 -6.840882733353123 C 9.579441196333459 -6.581957002041177 9.651881907958892 -6.3115358255434355 9.691408954248033 -6.035390337098184 L 9.639191124113104 -6.035390337098184 L 8.694738882375123 -6.840882733353123 Z" fill="#00aae5" transform="matrix(1,0,0,1,0,0)" fill-rule="evenodd"></path></g><g clip-path="url(#SvgjsClipPath1000c6913cb1-5245-40cf-af51-6c604d50b037)"><path d=" M 8.683950074496005 -1.4190752217812133 C 8.2847309724431 -1.4190752217812133 7.961099946595106 -1.742706247629208 7.961099946595106 -2.141925349682113 C 7.961099946595106 -2.54114445173502 8.2847309724431 -2.864775477583013 8.683950074496005 -2.864775477583013 L 9.337104503497802 -2.864775477583013 L 9.337104503497802 -3.027254924242529 L 9.639191124113104 -3.027254924242529 L 9.639191124113104 -2.677050220486361 L 10.305507898727424 -2.677050220486361 C 10.387209024932513 -2.676812370494602 10.453314912887489 -2.610513472647783 10.453314566671338 -2.5288120002272816 L 10.453314566671338 -2.5288120002272816 C 10.453196109761613 -2.447194755561525 10.387124883746214 -2.381027075201578 10.30550789872742 -2.380789556125783 L 9.637680691010026 -2.380789556125783 L 9.637680691010026 -1.9039242478687708 L 10.303997465624349 -1.9039242478687708 C 10.385698591829435 -1.9036863978770118 10.451804479784414 -1.837387500030193 10.451804133568263 -1.7556860276096913 L 10.451804133568263 -1.7556860276096913 C 10.451685676658538 -1.6740687829439338 10.385614450643136 -1.6079011025839876 10.303997465624345 -1.6076635835081916 L 9.637680691010026 -1.6076635835081916 L 9.637680691010026 -1.2574588797520256 L 9.337104503497802 -1.2574588797520256 L 9.337104503497802 -1.4199383264115397 Z" fill="#004b9e" transform="matrix(1,0,0,1,0,0)" fill-rule="evenodd"></path></g><g clip-path="url(#SvgjsClipPath1000c6913cb1-5245-40cf-af51-6c604d50b037)"><path d=" M 2.201171196091643 -1.0593763670914225 L 3.765548338563738 -1.0593763670914225 C 3.7592795457427397 -1.096460417774047 3.754886508533173 -1.1338372425570835 3.752385992951214 -1.1713641928766663 L 3.424837785741195 -1.4076390854293486 L 3.581707052303569 -1.520705792002504 L 3.7510913360057194 -1.3987922629684721 L 3.7510913360057194 -1.605505821932372 L 2.201171196091643 -1.605505821932372 Z M 4.0883494703069445 -1.0593763670914225 L 5.59878257338345 -1.0593763670914225 C 5.613447203991209 -1.1203526548372071 5.6206922227865626 -1.1828771670411111 5.620360189141687 -1.2455911910849977 L 5.620360189141687 -1.2658741498977388 L 5.453133667015359 -1.1437448447061254 L 5.296695952768149 -1.2570273274368642 L 5.622302174559927 -1.4915760107288865 L 5.622302174559927 -1.605505821932372 L 4.06590874991838 -1.605505821932372 L 4.06590874991838 -1.3987922629684721 L 4.234861481305367 -1.520705792002504 L 4.391730747867742 -1.4076390854293486 L 4.068066511494204 -1.1754639398707312 C 4.071803895249468 -1.1363002502376673 4.078585381385631 -1.0974870636285612 4.0883494703069445 -1.0593763670914242 Z M 5.922446809756988 -1.0593763670914225 L 9.130822496849067 -1.0593763670914225 L 9.130822496849067 -1.2143036482355551 L 8.683950074496005 -1.2143036482355551 C 8.438116953895861 -1.2140924917653049 8.202315572927894 -1.3117672159199643 8.028637883918384 -1.4857500544741633 C 7.9918810482720515 -1.5228921506469622 7.958182452643949 -1.562940802838817 7.9278704183274185 -1.6055058219323737 L 5.937551140787753 -1.6055058219323737 L 5.937551140787753 -1.4915760107288865 L 6.263804691052277 -1.2570273274368642 L 6.106719648332321 -1.1437448447061254 L 5.937551140787754 -1.2658741498977406 L 5.937551140787754 -1.2455911910849995 C 5.937543163706709 -1.183196251185615 5.9323466305303745 -1.1209100271407326 5.922015257442007 -1.0593763670925203 Z" fill="#56a41d" transform="matrix(1,0,0,1,0,0)" fill-rule="evenodd"></path></g><g clip-path="url(#SvgjsClipPath1000c6913cb1-5245-40cf-af51-6c604d50b037)"><path d=" M 2.201171196091643 -0.24999999999999822 L 4.3897887624494984 -0.24999999999999822 C 4.270818124290895 -0.30406728674962835 4.162566251343636 -0.37913458824647783 4.070224273070028 -0.4716021138370792 C 3.976644207139974 -0.5651355498624273 3.9006984318035727 -0.6747781514067981 3.8460328453419566 -0.7952663502106159 L 2.201171196091643 -0.7952663502106159 Z M 5.297774833556062 -0.24999999999999822 L 9.637680691010026 -0.24999999999999822 L 9.637680691010026 -0.7961294548409459 L 5.841530750663604 -0.7961294548409459 C 5.787000207632061 -0.6756181528080951 5.711120033353589 -0.5659647217698396 5.617555099093116 -0.4724652184674092 L 5.617555099093116 -0.4724652184674092 C 5.525117088881637 -0.3797907117399202 5.416809641154579 -0.30444322280159497 5.297774833556062 -0.24999999999999822 Z M 5.47881102976766 -0.7956979025257809 L 4.208536790080318 -0.7956979025257809 C 4.23454697558497 -0.7599069401774958 4.263411368225477 -0.7262799227513064 4.294847253113261 -0.6951462130924018 C 4.366920351831016 -0.6228475502851829 4.452569699440755 -0.5655035521423617 4.546873805169456 -0.5264092578629995 C 4.737677014225735 -0.4481605938994395 4.951612791040485 -0.4481605938994395 5.142416000096763 -0.5264092578629977 C 5.236868397671621 -0.5655410344862677 5.3226079352971745 -0.6230429998399334 5.394658328310542 -0.6955777654075685 C 5.425418764183879 -0.7267309541069604 5.453564560888943 -0.7603615727340358 5.47881102976766 -0.7961294548409477 Z" fill="#85c612" transform="matrix(1,0,0,1,0,0)" fill-rule="evenodd"></path></g><g clip-path="url(#SvgjsClipPath1000c6913cb1-5245-40cf-af51-6c604d50b037)"><path d=" M 3.859626743269646 -5.347927499040789 L 4.588518603582852 -5.347927499040789 L 4.588518603582852 -4.619035638727583 L 3.859626743269646 -4.619035638727583 Z M 5.09904499242271 -4.108940802202888 L 5.827936852735915 -4.108940802202888 L 5.827936852735915 -3.37875428494419 L 5.099044992422709 -3.37875428494419 Z M 5.09904499242271 -5.347927499040789 L 5.827936852735915 -5.347927499040789 L 5.827936852735915 -4.619035638727583 L 5.099044992422709 -4.619035638727583 Z M 3.8596267432696467 -4.108940802202888 L 4.588518603582852 -4.108940802202888 L 4.588518603582852 -3.37875428494419 L 3.859626743269646 -3.37875428494419 Z" fill="#ff9400" transform="matrix(1,0,0,1,0,0)" fill-rule="evenodd"></path></g></g><g><path d=" M 0.082763671875 0.942626953125 L 0.18603515625 0.942626953125 L 0.18603515625 0.234375 L 0.082763671875 0.234375 L 0.082763671875 0.032958984375 L 0.539794921875 0.032958984375 L 0.8671875 0.834228515625 L 1.171142578125 0.032958984375 L 1.634765625 0.032958984375 L 1.634765625 0.234375 L 1.531494140625 0.234375 L 1.531494140625 0.942626953125 L 1.63330078125 0.942626953125 L 1.63330078125 1.143310546875 L 1.218017578125 1.143310546875 L 1.218017578125 0.942626953125 L 1.294189453125 0.942626953125 L 1.294189453125 0.303955078125 L 0.961669921875 1.130126953125 L 0.755859375 1.130126953125 L 0.41748046875 0.325927734375 L 0.41748046875 0.942626953125 L 0.500244140625 0.942626953125 L 0.500244140625 1.143310546875 L 0.082763671875 1.143310546875 L 0.082763671875 0.942626953125 M 2.2412109375 1.102294921875 Q 2.215576171875 1.118408203125 2.1943359375 1.1297607421875 Q 2.173095703125 1.14111328125 2.15185546875 1.1480712890625 Q 2.130615234375 1.155029296875 2.10791015625 1.1583251953125 Q 2.085205078125 1.16162109375 2.05810546875 1.16162109375 Q 1.989990234375 1.16162109375 1.9361572265625 1.1429443359375 Q 1.88232421875 1.124267578125 1.8453369140625 1.0916748046875 Q 1.808349609375 1.05908203125 1.78857421875 1.0147705078125 Q 1.768798828125 0.970458984375 1.768798828125 0.91845703125 Q 1.768798828125 0.86572265625 1.7889404296875 0.821044921875 Q 1.80908203125 0.7763671875 1.84716796875 0.7445068359375 Q 1.88525390625 0.712646484375 1.9405517578125 0.6947021484375 Q 1.995849609375 0.6767578125 2.06689453125 0.6767578125 Q 2.118896484375 0.6767578125 2.1617431640625 0.6822509765625 Q 2.20458984375 0.687744140625 2.2412109375 0.69580078125 L 2.2412109375 0.67236328125 Q 2.2412109375 0.643798828125 2.230224609375 0.6229248046875 Q 2.21923828125 0.60205078125 2.199462890625 0.5885009765625 Q 2.1796875 0.574951171875 2.15185546875 0.5687255859375 Q 2.1240234375 0.5625 2.091064453125 0.5625 Q 2.022216796875 0.5625 1.9698486328125 0.5760498046875 Q 1.91748046875 0.589599609375 1.869140625 0.615234375 L 1.798828125 0.47314453125 Q 1.87353515625 0.421875 1.9552001953125 0.394775390625 Q 2.036865234375 0.36767578125 2.12841796875 0.36767578125 Q 2.199462890625 0.36767578125 2.2598876953125 0.3834228515625 Q 2.3203125 0.399169921875 2.363525390625 0.4346923828125 Q 2.40673828125 0.47021484375 2.4312744140625 0.52734375 Q 2.455810546875 0.58447265625 2.455810546875 0.66650390625 L 2.455810546875 0.942626953125 L 2.5576171875 0.942626953125 L 2.5576171875 1.143310546875 L 2.2412109375 1.143310546875 L 2.2412109375 1.102294921875 M 2.07421875 0.98876953125 Q 2.126220703125 0.98876953125 2.168701171875 0.971923828125 Q 2.211181640625 0.955078125 2.2412109375 0.930908203125 L 2.2412109375 0.834228515625 L 2.0654296875 0.834228515625 Q 2.048583984375 0.834228515625 2.032470703125 0.83935546875 Q 2.016357421875 0.844482421875 2.0035400390625 0.85400390625 Q 1.99072265625 0.863525390625 1.9830322265625 0.87744140625 Q 1.975341796875 0.891357421875 1.975341796875 0.90966796875 Q 1.975341796875 0.943359375 1.9998779296875 0.966064453125 Q 2.0244140625 0.98876953125 2.07421875 0.98876953125 M 2.9970703125 0.384521484375 L 3.148681640625 0.384521484375 L 3.148681640625 0.576416015625 L 2.99560546875 0.576416015625 L 2.994140625 0.897216796875 Q 2.994140625 0.925048828125 2.99853515625 0.9422607421875 Q 3.0029296875 0.95947265625 3.0113525390625 0.9697265625 Q 3.019775390625 0.97998046875 3.031494140625 0.983642578125 Q 3.043212890625 0.9873046875 3.05859375 0.9873046875 Q 3.08642578125 0.9873046875 3.107666015625 0.9818115234375 Q 3.12890625 0.976318359375 3.150146484375 0.968994140625 L 3.181640625 1.1103515625 Q 3.144287109375 1.1337890625 3.0985107421875 1.147705078125 Q 3.052734375 1.16162109375 2.98974609375 1.16162109375 Q 2.945068359375 1.16162109375 2.9044189453125 1.146240234375 Q 2.86376953125 1.130859375 2.8330078125 1.0997314453125 Q 2.80224609375 1.068603515625 2.783935546875 1.021728515625 Q 2.765625 0.974853515625 2.766357421875 0.91259765625 L 2.7685546875 0.576416015625 L 2.659423828125 0.576416015625 L 2.659423828125 0.384521484375 L 2.769287109375 0.384521484375 L 2.770751953125 0.202880859375 L 2.99853515625 0.094482421875 L 2.9970703125 0.384521484375 M 3.295166015625 0.384521484375 L 3.6357421875 0.384521484375 L 3.6357421875 0.942626953125 L 3.7412109375 0.942626953125 L 3.7412109375 1.143310546875 L 3.295166015625 1.143310546875 L 3.295166015625 0.942626953125 L 3.409423828125 0.942626953125 L 3.409423828125 0.585205078125 L 3.295166015625 0.585205078125 L 3.295166015625 0.384521484375 M 3.397705078125 0.139892578125 Q 3.397705078125 0.11279296875 3.4075927734375 0.0889892578125 Q 3.41748046875 0.065185546875 3.43505859375 0.047607421875 Q 3.45263671875 0.030029296875 3.4764404296875 0.019775390625 Q 3.500244140625 0.009521484375 3.528076171875 0.009521484375 Q 3.554443359375 0.009521484375 3.577880859375 0.019775390625 Q 3.601318359375 0.030029296875 3.618896484375 0.047607421875 Q 3.636474609375 0.065185546875 3.646728515625 0.0889892578125 Q 3.656982421875 0.11279296875 3.656982421875 0.139892578125 Q 3.656982421875 0.1669921875 3.646728515625 0.1907958984375 Q 3.636474609375 0.214599609375 3.618896484375 0.232177734375 Q 3.601318359375 0.249755859375 3.577880859375 0.260009765625 Q 3.554443359375 0.270263671875 3.528076171875 0.270263671875 Q 3.500244140625 0.270263671875 3.4764404296875 0.260009765625 Q 3.45263671875 0.249755859375 3.43505859375 0.232177734375 Q 3.41748046875 0.214599609375 3.4075927734375 0.1907958984375 Q 3.397705078125 0.1669921875 3.397705078125 0.139892578125 M 3.8583984375 0.814453125 L 3.8583984375 0.61376953125 L 4.317626953125 0.61376953125 L 4.317626953125 0.814453125 L 3.8583984375 0.814453125 M 4.96142578125 1.1630859375 Q 4.885986328125 1.1630859375 4.817138671875 1.142578125 Q 4.748291015625 1.1220703125 4.6885986328125 1.084716796875 Q 4.62890625 1.04736328125 4.5802001953125 0.9949951171875 Q 4.531494140625 0.942626953125 4.4970703125 0.8785400390625 Q 4.462646484375 0.814453125 4.443603515625 0.7412109375 Q 4.424560546875 0.66796875 4.424560546875 0.588134765625 Q 4.424560546875 0.50830078125 4.443603515625 0.4346923828125 Q 4.462646484375 0.361083984375 4.4970703125 0.2969970703125 Q 4.531494140625 0.23291015625 4.5802001953125 0.1805419921875 Q 4.62890625 0.128173828125 4.6885986328125 0.0908203125 Q 4.748291015625 0.053466796875 4.817138671875 0.032958984375 Q 4.885986328125 0.012451171875 4.96142578125 0.012451171875 Q 5.036865234375 0.012451171875 5.1060791015625 0.032958984375 Q 5.17529296875 0.053466796875 5.2349853515625 0.0908203125 Q 5.294677734375 0.128173828125 5.3433837890625 0.1805419921875 Q 5.39208984375 0.23291015625 5.4268798828125 0.2969970703125 Q 5.461669921875 0.361083984375 5.480712890625 0.4346923828125 Q 5.499755859375 0.50830078125 5.499755859375 0.588134765625 Q 5.499755859375 0.667236328125 5.480712890625 0.7408447265625 Q 5.461669921875 0.814453125 5.4268798828125 0.8785400390625 Q 5.39208984375 0.942626953125 5.3433837890625 0.9949951171875 Q 5.294677734375 1.04736328125 5.2349853515625 1.084716796875 Q 5.17529296875 1.1220703125 5.1060791015625 1.142578125 Q 5.036865234375 1.1630859375 4.96142578125 1.1630859375 M 4.96142578125 0.93310546875 Q 5.025146484375 0.93310546875 5.0782470703125 0.9056396484375 Q 5.13134765625 0.878173828125 5.16943359375 0.8309326171875 Q 5.20751953125 0.78369140625 5.2283935546875 0.7210693359375 Q 5.249267578125 0.658447265625 5.249267578125 0.588134765625 Q 5.249267578125 0.51708984375 5.22802734375 0.4541015625 Q 5.206787109375 0.39111328125 5.1683349609375 0.3438720703125 Q 5.1298828125 0.296630859375 5.0771484375 0.2691650390625 Q 5.0244140625 0.24169921875 4.96142578125 0.24169921875 Q 4.8984375 0.24169921875 4.845703125 0.2691650390625 Q 4.79296875 0.296630859375 4.7548828125 0.3438720703125 Q 4.716796875 0.39111328125 4.6951904296875 0.4541015625 Q 4.673583984375 0.51708984375 4.673583984375 0.588134765625 Q 4.673583984375 0.658447265625 4.6951904296875 0.7210693359375 Q 4.716796875 0.78369140625 4.7548828125 0.8309326171875 Q 4.79296875 0.878173828125 4.845703125 0.9056396484375 Q 4.8984375 0.93310546875 4.96142578125 0.93310546875 M 6.243896484375 0.706787109375 Q 6.243896484375 0.64306640625 6.210205078125 0.6068115234375 Q 6.176513671875 0.570556640625 6.120849609375 0.570556640625 Q 6.082763671875 0.570556640625 6.0439453125 0.58740234375 Q 6.005126953125 0.604248046875 5.968505859375 0.650390625 L 5.968505859375 0.942626953125 L 6.091552734375 0.942626953125 L 6.091552734375 1.143310546875 L 5.619873046875 1.143310546875 L 5.619873046875 0.942626953125 L 5.731201171875 0.942626953125 L 5.731201171875 0.585205078125 L 5.621337890625 0.585205078125 L 5.621337890625 0.384521484375 L 5.967041015625 0.384521484375 L 5.967041015625 0.451171875 Q 6.0146484375 0.413818359375 6.0736083984375 0.3922119140625 Q 6.132568359375 0.37060546875 6.19775390625 0.37060546875 Q 6.334716796875 0.37060546875 6.40869140625 0.4471435546875 Q 6.482666015625 0.523681640625 6.482666015625 0.6708984375 L 6.482666015625 0.942626953125 L 6.59033203125 0.942626953125 L 6.59033203125 1.143310546875 L 6.243896484375 1.143310546875 L 6.243896484375 0.706787109375 M 6.687744140625 0.384521484375 L 7.0283203125 0.384521484375 L 7.0283203125 0.942626953125 L 7.1337890625 0.942626953125 L 7.1337890625 1.143310546875 L 6.687744140625 1.143310546875 L 6.687744140625 0.942626953125 L 6.802001953125 0.942626953125 L 6.802001953125 0.585205078125 L 6.687744140625 0.585205078125 L 6.687744140625 0.384521484375 M 6.790283203125 0.139892578125 Q 6.790283203125 0.11279296875 6.8001708984375 0.0889892578125 Q 6.81005859375 0.065185546875 6.82763671875 0.047607421875 Q 6.84521484375 0.030029296875 6.8690185546875 0.019775390625 Q 6.892822265625 0.009521484375 6.920654296875 0.009521484375 Q 6.947021484375 0.009521484375 6.970458984375 0.019775390625 Q 6.993896484375 0.030029296875 7.011474609375 0.047607421875 Q 7.029052734375 0.065185546875 7.039306640625 0.0889892578125 Q 7.049560546875 0.11279296875 7.049560546875 0.139892578125 Q 7.049560546875 0.1669921875 7.039306640625 0.1907958984375 Q 7.029052734375 0.214599609375 7.011474609375 0.232177734375 Q 6.993896484375 0.249755859375 6.970458984375 0.260009765625 Q 6.947021484375 0.270263671875 6.920654296875 0.270263671875 Q 6.892822265625 0.270263671875 6.8690185546875 0.260009765625 Q 6.84521484375 0.249755859375 6.82763671875 0.232177734375 Q 6.81005859375 0.214599609375 6.8001708984375 0.1907958984375 Q 6.790283203125 0.1669921875 6.790283203125 0.139892578125 M 7.7376708984375 0.5830078125 Q 7.726318359375 0.56689453125 7.704345703125 0.5548095703125 Q 7.682373046875 0.542724609375 7.6505126953125 0.535400390625 Q 7.61865234375 0.528076171875 7.578369140625 0.528076171875 Q 7.56298828125 0.528076171875 7.54541015625 0.5306396484375 Q 7.52783203125 0.533203125 7.5128173828125 0.539794921875 Q 7.497802734375 0.54638671875 7.4879150390625 0.5577392578125 Q 7.47802734375 0.569091796875 7.47802734375 0.586669921875 Q 7.47802734375 0.595458984375 7.4805908203125 0.603515625 Q 7.483154296875 0.611572265625 7.490478515625 0.618896484375 Q 7.497802734375 0.626220703125 7.5106201171875 0.6324462890625 Q 7.5234375 0.638671875 7.5439453125 0.642333984375 L 7.681640625 0.66943359375 Q 7.75634765625 0.68408203125 7.806884765625 0.7060546875 Q 7.857421875 0.72802734375 7.88818359375 0.75732421875 Q 7.9189453125 0.78662109375 7.9324951171875 0.822509765625 Q 7.946044921875 0.8583984375 7.946044921875 0.900146484375 Q 7.946044921875 0.96533203125 7.9156494140625 1.014404296875 Q 7.88525390625 1.0634765625 7.8358154296875 1.0960693359375 Q 7.786376953125 1.128662109375 7.7244873046875 1.1451416015625 Q 7.66259765625 1.16162109375 7.599609375 1.16162109375 Q 7.55859375 1.16162109375 7.5252685546875 1.156494140625 Q 7.491943359375 1.1513671875 7.4652099609375 1.142578125 Q 7.4384765625 1.1337890625 7.4176025390625 1.1217041015625 Q 7.396728515625 1.109619140625 7.379150390625 1.094970703125 L 7.24658203125 1.094970703125 L 7.24658203125 0.891357421875 L 7.453857421875 0.891357421875 L 7.453857421875 0.895751953125 Q 7.45458984375 0.9169921875 7.467041015625 0.9327392578125 Q 7.4794921875 0.948486328125 7.4996337890625 0.95947265625 Q 7.519775390625 0.970458984375 7.54541015625 0.9759521484375 Q 7.571044921875 0.9814453125 7.599609375 0.9814453125 Q 7.66552734375 0.9814453125 7.695556640625 0.9642333984375 Q 7.7255859375 0.947021484375 7.7255859375 0.919921875 Q 7.7255859375 0.898681640625 7.7109375 0.8836669921875 Q 7.6962890625 0.86865234375 7.658935546875 0.85986328125 L 7.518310546875 0.829833984375 Q 7.3857421875 0.80419921875 7.318359375 0.7445068359375 Q 7.2509765625 0.684814453125 7.2509765625 0.591064453125 Q 7.2509765625 0.5361328125 7.276611328125 0.4910888671875 Q 7.30224609375 0.446044921875 7.34619140625 0.4141845703125 Q 7.39013671875 0.38232421875 7.4490966796875 0.36474609375 Q 7.508056640625 0.34716796875 7.575439453125 0.34716796875 Q 7.62158203125 0.34716796875 7.657470703125 0.3526611328125 Q 7.693359375 0.358154296875 7.721923828125 0.366943359375 Q 7.75048828125 0.375732421875 7.7720947265625 0.3878173828125 Q 7.793701171875 0.39990234375 7.810546875 0.4130859375 L 7.93798828125 0.4130859375 L 7.93798828125 0.61669921875 L 7.7490234375 0.61669921875 Q 7.7490234375 0.59912109375 7.7376708984375 0.5830078125 M 8.927490234375 0.345703125 Q 8.923828125 0.320068359375 8.9095458984375 0.29736328125 Q 8.895263671875 0.274658203125 8.8729248046875 0.2581787109375 Q 8.8505859375 0.24169921875 8.8223876953125 0.232177734375 Q 8.794189453125 0.22265625 8.763427734375 0.22265625 Q 8.735595703125 0.22265625 8.71142578125 0.228515625 Q 8.687255859375 0.234375 8.6693115234375 0.2464599609375 Q 8.6513671875 0.258544921875 8.6407470703125 0.277587890625 Q 8.630126953125 0.296630859375 8.630126953125 0.322998046875 Q 8.630126953125 0.35595703125 8.6444091796875 0.3753662109375 Q 8.65869140625 0.394775390625 8.6810302734375 0.4072265625 Q 8.703369140625 0.419677734375 8.73046875 0.427001953125 Q 8.757568359375 0.434326171875 8.783203125 0.443115234375 L 8.984619140625 0.510498046875 Q 9.0263671875 0.525146484375 9.06298828125 0.55078125 Q 9.099609375 0.576416015625 9.1263427734375 0.613037109375 Q 9.153076171875 0.649658203125 9.16845703125 0.697265625 Q 9.183837890625 0.744873046875 9.183837890625 0.80419921875 Q 9.183837890625 0.884765625 9.1541748046875 0.951416015625 Q 9.12451171875 1.01806640625 9.071044921875 1.065673828125 Q 9.017578125 1.11328125 8.94287109375 1.1396484375 Q 8.8681640625 1.166015625 8.77734375 1.166015625 Q 8.713623046875 1.166015625 8.6568603515625 1.1517333984375 Q 8.60009765625 1.137451171875 8.55322265625 1.1103515625 Q 8.50634765625 1.083251953125 8.47119140625 1.0455322265625 Q 8.43603515625 1.0078125 8.416259765625 0.960205078125 L 8.3408203125 0.960205078125 L 8.3408203125 0.73974609375 L 8.60595703125 0.73974609375 L 8.60595703125 0.78515625 Q 8.60595703125 0.818115234375 8.6165771484375 0.845947265625 Q 8.627197265625 0.873779296875 8.6484375 0.894287109375 Q 8.669677734375 0.914794921875 8.701904296875 0.9261474609375 Q 8.734130859375 0.9375 8.77734375 0.9375 Q 8.84326171875 0.9375 8.877685546875 0.9071044921875 Q 8.912109375 0.876708984375 8.912109375 0.822509765625 Q 8.912109375 0.794677734375 8.9000244140625 0.7760009765625 Q 8.887939453125 0.75732421875 8.868896484375 0.7445068359375 Q 8.849853515625 0.731689453125 8.826416015625 0.722900390625 Q 8.802978515625 0.714111328125 8.7802734375 0.706787109375 L 8.612548828125 0.652587890625 Q 8.56494140625 0.637939453125 8.5206298828125 0.611572265625 Q 8.476318359375 0.585205078125 8.4422607421875 0.545654296875 Q 8.408203125 0.506103515625 8.3880615234375 0.4530029296875 Q 8.367919921875 0.39990234375 8.367919921875 0.331787109375 Q 8.367919921875 0.252685546875 8.397216796875 0.1907958984375 Q 8.426513671875 0.12890625 8.479248046875 0.08642578125 Q 8.531982421875 0.0439453125 8.6044921875 0.02197265625 Q 8.677001953125 0 8.763427734375 0 Q 8.83154296875 0 8.889404296875 0.0157470703125 Q 8.947265625 0.031494140625 8.9930419921875 0.057861328125 Q 9.038818359375 0.084228515625 9.0706787109375 0.1182861328125 Q 9.1025390625 0.15234375 9.119384765625 0.18896484375 L 9.192626953125 0.18896484375 L 9.192626953125 0.41015625 L 8.927490234375 0.41015625 L 8.927490234375 0.345703125 M 9.303955078125 0.032958984375 L 9.891357421875 0.032958984375 Q 9.97705078125 0.032958984375 10.04443359375 0.05859375 Q 10.11181640625 0.084228515625 10.157958984375 0.1270751953125 Q 10.2041015625 0.169921875 10.2286376953125 0.2266845703125 Q 10.253173828125 0.283447265625 10.253173828125 0.344970703125 Q 10.253173828125 0.4013671875 10.2410888671875 0.44384765625 Q 10.22900390625 0.486328125 10.2059326171875 0.519287109375 Q 10.182861328125 0.55224609375 10.149169921875 0.5775146484375 Q 10.115478515625 0.602783203125 10.072265625 0.623291015625 Q 10.109619140625 0.642333984375 10.13818359375 0.6815185546875 Q 10.166748046875 0.720703125 10.181396484375 0.782958984375 L 10.21875 0.92724609375 L 10.310302734375 0.92724609375 L 10.311767578125 1.143310546875 L 9.989501953125 1.143310546875 L 9.945556640625 0.879638671875 Q 9.93896484375 0.832763671875 9.9254150390625 0.7987060546875 Q 9.911865234375 0.7646484375 9.88916015625 0.7430419921875 Q 9.866455078125 0.721435546875 9.8338623046875 0.711181640625 Q 9.80126953125 0.700927734375 9.756591796875 0.700927734375 L 9.662109375 0.700927734375 L 9.662109375 0.942626953125 L 9.763916015625 0.942626953125 L 9.763916015625 1.143310546875 L 9.303955078125 1.143310546875 L 9.303955078125 0.942626953125 L 9.4189453125 0.942626953125 L 9.4189453125 0.234375 L 9.303955078125 0.234375 L 9.303955078125 0.032958984375 M 9.662109375 0.234375 L 9.662109375 0.503173828125 L 9.807861328125 0.503173828125 Q 9.849609375 0.503173828125 9.8829345703125 0.4954833984375 Q 9.916259765625 0.48779296875 9.9400634765625 0.4713134765625 Q 9.9638671875 0.454833984375 9.9766845703125 0.429931640625 Q 9.989501953125 0.405029296875 9.989501953125 0.37060546875 Q 9.989501953125 0.30615234375 9.943359375 0.270263671875 Q 9.897216796875 0.234375 9.807861328125 0.234375 L 9.662109375 0.234375 M 10.423095703125 0.032958984375 L 10.8984375 0.032958984375 L 10.8984375 0.234375 L 10.78125 0.234375 L 10.78125 0.942626953125 L 11.02294921875 0.942626953125 Q 11.032470703125 0.942626953125 11.0416259765625 0.9371337890625 Q 11.05078125 0.931640625 11.0577392578125 0.9228515625 Q 11.064697265625 0.9140625 11.069091796875 0.90380859375 Q 11.073486328125 0.8935546875 11.073486328125 0.884033203125 L 11.073486328125 0.7353515625 L 11.310791015625 0.7353515625 L 11.310791015625 1.143310546875 L 10.423095703125 1.143310546875 L 10.423095703125 0.942626953125 L 10.5380859375 0.942626953125 L 10.5380859375 0.234375 L 10.423095703125 0.234375 L 10.423095703125 0.032958984375" fill="#004b9e" fill-rule="nonzero"></path></g><g><path d=" M 2.6356658935546875 1.5181005859375 L 2.9670867919921875 1.5181005859375 L 2.9670867919921875 1.64902099609375 L 2.9045257568359375 1.64902099609375 L 2.9045257568359375 1.57089599609375 L 2.7394256591796875 1.57089599609375 L 2.7394256591796875 1.71890625 L 2.8782806396484375 1.71890625 L 2.8782806396484375 1.771396484375 L 2.7394256591796875 1.771396484375 L 2.7394256591796875 1.9282568359375 L 2.9045257568359375 1.9282568359375 L 2.9045257568359375 1.8501318359375 L 2.9670867919921875 1.8501318359375 L 2.9670867919921875 1.9807470703125 L 2.6356658935546875 1.9807470703125 L 2.6356658935546875 1.9282568359375 L 2.6796112060546875 1.9282568359375 L 2.6796112060546875 1.57089599609375 L 2.6356658935546875 1.57089599609375 L 2.6356658935546875 1.5181005859375 M 3.2238922119140625 1.9282568359375 L 3.2684478759765625 1.9282568359375 L 3.2684478759765625 1.78390869140625 Q 3.2684478759765625 1.7475927734375 3.2499847412109375 1.728824462890625 Q 3.2315216064453125 1.71005615234375 3.1970367431640625 1.71005615234375 Q 3.1772003173828125 1.71005615234375 3.1570587158203125 1.7195166015625 Q 3.1369171142578125 1.72897705078125 3.1189117431640625 1.74301513671875 L 3.1189117431640625 1.9282568359375 L 3.1634674072265625 1.9282568359375 L 3.1634674072265625 1.9807470703125 L 3.0157623291015625 1.9807470703125 L 3.0157623291015625 1.9282568359375 L 3.0597076416015625 1.9282568359375 L 3.0597076416015625 1.7170751953125 L 3.0157623291015625 1.7170751953125 L 3.0157623291015625 1.6645849609375 L 3.1164703369140625 1.6645849609375 L 3.1164703369140625 1.70181640625 L 3.1170806884765625 1.70181640625 Q 3.1271514892578125 1.69296630859375 3.1385955810546875 1.68503173828125 Q 3.1500396728515625 1.67709716796875 3.1625518798828125 1.671298828125 Q 3.1750640869140625 1.66550048828125 3.1886444091796875 1.6621435546875 Q 3.2022247314453125 1.65878662109375 3.2171783447265625 1.65878662109375 Q 3.2425079345703125 1.65878662109375 3.2629547119140625 1.6658056640625 Q 3.2834014892578125 1.67282470703125 3.2977447509765625 1.68716796875 Q 3.3120880126953125 1.70151123046875 3.3198699951171875 1.723941650390625 Q 3.3276519775390625 1.7463720703125 3.3276519775390625 1.7768896484375 L 3.3276519775390625 1.9282568359375 L 3.3715972900390625 1.9282568359375 L 3.3715972900390625 1.9807470703125 L 3.2238922119140625 1.9807470703125 L 3.2238922119140625 1.9282568359375 M 3.4871063232421875 1.829990234375 Q 3.4871063232421875 1.84341796875 3.4890899658203125 1.854556884765625 Q 3.4910736083984375 1.86569580078125 3.4947357177734375 1.8757666015625 Q 3.5060272216796875 1.9062841796875 3.5308990478515625 1.921695556640625 Q 3.5557708740234375 1.93710693359375 3.5872039794921875 1.93710693359375 Q 3.6119232177734375 1.93710693359375 3.6352691650390625 1.930240478515625 Q 3.6586151123046875 1.9233740234375 3.6842498779296875 1.9087255859375 L 3.7071380615234375 1.94748291015625 Q 3.6760101318359375 1.96884521484375 3.6445770263671875 1.97922119140625 Q 3.6131439208984375 1.98959716796875 3.5792694091796875 1.98959716796875 Q 3.5472259521484375 1.98959716796875 3.5199127197265625 1.978916015625 Q 3.4925994873046875 1.96823486328125 3.4729156494140625 1.947177734375 Q 3.4532318115234375 1.92612060546875 3.4420928955078125 1.8946875 Q 3.4309539794921875 1.86325439453125 3.4309539794921875 1.8214453125 Q 3.4309539794921875 1.78757080078125 3.4404144287109375 1.757510986328125 Q 3.4498748779296875 1.727451171875 3.4686431884765625 1.705020751953125 Q 3.4874114990234375 1.68259033203125 3.5151824951171875 1.6694677734375 Q 3.5429534912109375 1.65634521484375 3.5798797607421875 1.65634521484375 Q 3.6155853271484375 1.65634521484375 3.6395416259765625 1.667178955078125 Q 3.6634979248046875 1.6780126953125 3.6786041259765625 1.695865478515625 Q 3.6937103271484375 1.71371826171875 3.7014923095703125 1.7366064453125 Q 3.7092742919921875 1.75949462890625 3.7123260498046875 1.78329833984375 Q 3.7138519287109375 1.79489501953125 3.7143096923828125 1.806796875 Q 3.7147674560546875 1.81869873046875 3.7147674560546875 1.829990234375 L 3.4871063232421875 1.829990234375 M 3.5759124755859375 1.70395263671875 Q 3.5560760498046875 1.70395263671875 3.5412750244140625 1.709598388671875 Q 3.5264739990234375 1.715244140625 3.5160980224609375 1.725772705078125 Q 3.5057220458984375 1.73630126953125 3.4994659423828125 1.75156005859375 Q 3.4932098388671875 1.76681884765625 3.4901580810546875 1.78573974609375 L 3.6540374755859375 1.78573974609375 Q 3.6528167724609375 1.76803955078125 3.6483917236328125 1.7530859375 Q 3.6439666748046875 1.73813232421875 3.6348114013671875 1.72714599609375 Q 3.6256561279296875 1.71615966796875 3.6113128662109375 1.71005615234375 Q 3.5969696044921875 1.70395263671875 3.5759124755859375 1.70395263671875 M 4.0200958251953125 1.73141845703125 L 3.9621124267578125 1.73141845703125 L 3.9621124267578125 1.71188720703125 Q 3.9520416259765625 1.71188720703125 3.9415130615234375 1.715701904296875 Q 3.9309844970703125 1.7195166015625 3.9218292236328125 1.727298583984375 Q 3.9126739501953125 1.73508056640625 3.9058074951171875 1.747135009765625 Q 3.8989410400390625 1.759189453125 3.8958892822265625 1.7756689453125 L 3.8958892822265625 1.9282568359375 L 3.9496002197265625 1.9282568359375 L 3.9496002197265625 1.9807470703125 L 3.7927398681640625 1.9807470703125 L 3.7927398681640625 1.9282568359375 L 3.8363800048828125 1.9282568359375 L 3.8366851806640625 1.7170751953125 L 3.7927398681640625 1.7170751953125 L 3.7927398681640625 1.6645849609375 L 3.8937530517578125 1.6645849609375 L 3.8937530517578125 1.70822509765625 Q 3.8992462158203125 1.69845947265625 3.9061126708984375 1.690067138671875 Q 3.9129791259765625 1.6816748046875 3.9213714599609375 1.675418701171875 Q 3.9297637939453125 1.66916259765625 3.9399871826171875 1.665653076171875 Q 3.9502105712890625 1.6621435546875 3.9621124267578125 1.6621435546875 Q 3.9779815673828125 1.6621435546875 3.9920196533203125 1.6621435546875 Q 4.0060577392578125 1.6621435546875 4.0200958251953125 1.66275390625 L 4.0200958251953125 1.73141845703125 M 4.3177947998046875 1.95297607421875 Q 4.3022308349609375 1.96945556640625 4.2816314697265625 1.97861083984375 Q 4.2610321044921875 1.98776611328125 4.2347869873046875 1.98776611328125 Q 4.2027435302734375 1.98776611328125 4.1751251220703125 1.976627197265625 Q 4.1475067138671875 1.96548828125 4.1272125244140625 1.943973388671875 Q 4.1069183349609375 1.92245849609375 4.0954742431640625 1.891177978515625 Q 4.0840301513671875 1.8598974609375 4.0840301513671875 1.8196142578125 Q 4.0840301513671875 1.7829931640625 4.0950164794921875 1.752933349609375 Q 4.1060028076171875 1.72287353515625 4.1261444091796875 1.701663818359375 Q 4.1462860107421875 1.6804541015625 4.1746673583984375 1.668704833984375 Q 4.2030487060546875 1.65695556640625 4.2378387451171875 1.65695556640625 Q 4.2616424560546875 1.65695556640625 4.2807159423828125 1.662296142578125 Q 4.2997894287109375 1.66763671875 4.3177947998046875 1.68075927734375 L 4.3177947998046875 1.6645849609375 L 4.3745574951171875 1.6645849609375 L 4.3745574951171875 1.96823486328125 Q 4.3745574951171875 2.04330810546875 4.3390045166015625 2.08176025390625 Q 4.3034515380859375 2.12021240234375 4.2283782958984375 2.12021240234375 Q 4.2118988037109375 2.12021240234375 4.1938934326171875 2.11777099609375 Q 4.1758880615234375 2.11532958984375 4.1583404541015625 2.109989013671875 Q 4.1407928466796875 2.1046484375 4.1241607666015625 2.09640869140625 Q 4.1075286865234375 2.0881689453125 4.0934906005859375 2.07626708984375 L 4.1240081787109375 2.030185546875 Q 4.1331634521484375 2.0381201171875 4.1449127197265625 2.044833984375 Q 4.1566619873046875 2.0515478515625 4.1700897216796875 2.056278076171875 Q 4.1835174560546875 2.06100830078125 4.1978607177734375 2.0637548828125 Q 4.2122039794921875 2.06650146484375 4.2265472412109375 2.06650146484375 Q 4.2500457763671875 2.06650146484375 4.2672882080078125 2.06161865234375 Q 4.2845306396484375 2.05673583984375 4.2956695556640625 2.044376220703125 Q 4.3068084716796875 2.0320166015625 4.3123016357421875 2.01095947265625 Q 4.3177947998046875 1.98990234375 4.3177947998046875 1.9575537109375 L 4.3177947998046875 1.95297607421875 M 4.2421112060546875 1.93832763671875 Q 4.2561492919921875 1.93832763671875 4.2677459716796875 1.9355810546875 Q 4.2793426513671875 1.93283447265625 4.2888031005859375 1.928409423828125 Q 4.2982635498046875 1.923984375 4.3054351806640625 1.91818603515625 Q 4.3126068115234375 1.9123876953125 4.3177947998046875 1.90597900390625 L 4.3177947998046875 1.7329443359375 Q 4.3022308349609375 1.71921142578125 4.2819366455078125 1.71310791015625 Q 4.2616424560546875 1.70700439453125 4.2402801513671875 1.70700439453125 Q 4.2201385498046875 1.70700439453125 4.2024383544921875 1.714481201171875 Q 4.1847381591796875 1.7219580078125 4.1714630126953125 1.73630126953125 Q 4.1581878662109375 1.75064453125 4.1505584716796875 1.771396484375 Q 4.1429290771484375 1.7921484375 4.1429290771484375 1.81900390625 Q 4.1429290771484375 1.84830078125 4.1502532958984375 1.87057861328125 Q 4.1575775146484375 1.8928564453125 4.1707000732421875 1.907962646484375 Q 4.1838226318359375 1.92306884765625 4.2021331787109375 1.9306982421875 Q 4.2204437255859375 1.93832763671875 4.2421112060546875 1.93832763671875 M 4.5071563720703125 1.829990234375 Q 4.5071563720703125 1.84341796875 4.5091400146484375 1.854556884765625 Q 4.5111236572265625 1.86569580078125 4.5147857666015625 1.8757666015625 Q 4.5260772705078125 1.9062841796875 4.5509490966796875 1.921695556640625 Q 4.5758209228515625 1.93710693359375 4.6072540283203125 1.93710693359375 Q 4.6319732666015625 1.93710693359375 4.6553192138671875 1.930240478515625 Q 4.6786651611328125 1.9233740234375 4.7042999267578125 1.9087255859375 L 4.7271881103515625 1.94748291015625 Q 4.6960601806640625 1.96884521484375 4.6646270751953125 1.97922119140625 Q 4.6331939697265625 1.98959716796875 4.5993194580078125 1.98959716796875 Q 4.5672760009765625 1.98959716796875 4.5399627685546875 1.978916015625 Q 4.5126495361328125 1.96823486328125 4.4929656982421875 1.947177734375 Q 4.4732818603515625 1.92612060546875 4.4621429443359375 1.8946875 Q 4.4510040283203125 1.86325439453125 4.4510040283203125 1.8214453125 Q 4.4510040283203125 1.78757080078125 4.4604644775390625 1.757510986328125 Q 4.4699249267578125 1.727451171875 4.4886932373046875 1.705020751953125 Q 4.5074615478515625 1.68259033203125 4.5352325439453125 1.6694677734375 Q 4.5630035400390625 1.65634521484375 4.5999298095703125 1.65634521484375 Q 4.6356353759765625 1.65634521484375 4.6595916748046875 1.667178955078125 Q 4.6835479736328125 1.6780126953125 4.6986541748046875 1.695865478515625 Q 4.7137603759765625 1.71371826171875 4.7215423583984375 1.7366064453125 Q 4.7293243408203125 1.75949462890625 4.7323760986328125 1.78329833984375 Q 4.7339019775390625 1.79489501953125 4.7343597412109375 1.806796875 Q 4.7348175048828125 1.81869873046875 4.7348175048828125 1.829990234375 L 4.5071563720703125 1.829990234375 M 4.5959625244140625 1.70395263671875 Q 4.5761260986328125 1.70395263671875 4.5613250732421875 1.709598388671875 Q 4.5465240478515625 1.715244140625 4.5361480712890625 1.725772705078125 Q 4.5257720947265625 1.73630126953125 4.5195159912109375 1.75156005859375 Q 4.5132598876953125 1.76681884765625 4.5102081298828125 1.78573974609375 L 4.6740875244140625 1.78573974609375 Q 4.6728668212890625 1.76803955078125 4.6684417724609375 1.7530859375 Q 4.6640167236328125 1.73813232421875 4.6548614501953125 1.72714599609375 Q 4.6457061767578125 1.71615966796875 4.6313629150390625 1.71005615234375 Q 4.6170196533203125 1.70395263671875 4.5959625244140625 1.70395263671875 M 4.9043426513671875 1.6645849609375 L 4.9785003662109375 1.6645849609375 L 4.9785003662109375 1.71066650390625 L 4.9037322998046875 1.71066650390625 L 4.9028167724609375 1.89316162109375 Q 4.9028167724609375 1.91177734375 4.9070892333984375 1.9233740234375 Q 4.9113616943359375 1.934970703125 4.9208221435546875 1.939395751953125 Q 4.9302825927734375 1.94382080078125 4.9421844482421875 1.94382080078125 Q 4.9550018310546875 1.94382080078125 4.9647674560546875 1.941531982421875 Q 4.9745330810546875 1.9392431640625 4.9861297607421875 1.93375 L 4.9992523193359375 1.97189697265625 Q 4.9846038818359375 1.9795263671875 4.9684295654296875 1.983951416015625 Q 4.9522552490234375 1.98837646484375 4.9302825927734375 1.98837646484375 Q 4.9095306396484375 1.98837646484375 4.8941192626953125 1.983341064453125 Q 4.8787078857421875 1.9783056640625 4.8681793212890625 1.96640380859375 Q 4.8576507568359375 1.954501953125 4.8524627685546875 1.934512939453125 Q 4.8472747802734375 1.91452392578125 4.8472747802734375 1.88461669921875 L 4.8481903076171875 1.71066650390625 L 4.7978363037109375 1.71066650390625 L 4.7978363037109375 1.6645849609375 L 4.8488006591796875 1.6645849609375 L 4.8488006591796875 1.5889013671875 L 4.9043426513671875 1.56265625 L 4.9043426513671875 1.6645849609375 M 5.0436553955078125 1.6645849609375 L 5.1468048095703125 1.6645849609375 L 5.1468048095703125 1.9282568359375 L 5.1944122314453125 1.9282568359375 L 5.1944122314453125 1.9807470703125 L 5.0442657470703125 1.9807470703125 L 5.0442657470703125 1.9282568359375 L 5.0894317626953125 1.9282568359375 L 5.0894317626953125 1.7170751953125 L 5.0436553955078125 1.7170751953125 L 5.0436553955078125 1.6645849609375 M 5.0787506103515625 1.55258544921875 Q 5.0787506103515625 1.54465087890625 5.0819549560546875 1.537479248046875 Q 5.0851593017578125 1.5303076171875 5.0904998779296875 1.524967041015625 Q 5.0958404541015625 1.51962646484375 5.1031646728515625 1.516422119140625 Q 5.1104888916015625 1.5132177734375 5.1187286376953125 1.5132177734375 Q 5.1266632080078125 1.5132177734375 5.1338348388671875 1.516422119140625 Q 5.1410064697265625 1.51962646484375 5.1463470458984375 1.524967041015625 Q 5.1516876220703125 1.5303076171875 5.1548919677734375 1.537479248046875 Q 5.1580963134765625 1.54465087890625 5.1580963134765625 1.55258544921875 Q 5.1580963134765625 1.5608251953125 5.1548919677734375 1.5681494140625 Q 5.1516876220703125 1.5754736328125 5.1463470458984375 1.581119384765625 Q 5.1410064697265625 1.58676513671875 5.1338348388671875 1.589969482421875 Q 5.1266632080078125 1.593173828125 5.1187286376953125 1.593173828125 Q 5.1104888916015625 1.593173828125 5.1031646728515625 1.589969482421875 Q 5.0958404541015625 1.58676513671875 5.0904998779296875 1.581119384765625 Q 5.0851593017578125 1.5754736328125 5.0819549560546875 1.5681494140625 Q 5.0787506103515625 1.5608251953125 5.0787506103515625 1.55258544921875 M 5.4756317138671875 1.7488134765625 Q 5.4628143310546875 1.72592529296875 5.4431304931640625 1.715244140625 Q 5.4234466552734375 1.70456298828125 5.3975067138671875 1.70456298828125 Q 5.3776702880859375 1.70456298828125 5.3602752685546875 1.712802734375 Q 5.3428802490234375 1.72104248046875 5.3299102783203125 1.73630126953125 Q 5.3169403076171875 1.75156005859375 5.3094635009765625 1.773380126953125 Q 5.3019866943359375 1.7952001953125 5.3019866943359375 1.8220556640625 Q 5.3019866943359375 1.84860595703125 5.3094635009765625 1.86996826171875 Q 5.3169403076171875 1.89133056640625 5.3300628662109375 1.906436767578125 Q 5.3431854248046875 1.92154296875 5.3604278564453125 1.929630126953125 Q 5.3776702880859375 1.93771728515625 5.3975067138671875 1.93771728515625 Q 5.4268035888671875 1.93771728515625 5.4484710693359375 1.923526611328125 Q 5.4701385498046875 1.9093359375 5.4829559326171875 1.8818701171875 L 5.5299530029296875 1.9050634765625 Q 5.5207977294921875 1.9245947265625 5.5073699951171875 1.94015869140625 Q 5.4939422607421875 1.95572265625 5.4770050048828125 1.966708984375 Q 5.4600677490234375 1.9776953125 5.4397735595703125 1.983646240234375 Q 5.4194793701171875 1.98959716796875 5.3968963623046875 1.98959716796875 Q 5.3639373779296875 1.98959716796875 5.3360137939453125 1.977237548828125 Q 5.3080902099609375 1.9648779296875 5.2877960205078125 1.94260009765625 Q 5.2675018310546875 1.920322265625 5.2562103271484375 1.88949951171875 Q 5.2449188232421875 1.8586767578125 5.2449188232421875 1.8220556640625 Q 5.2449188232421875 1.7854345703125 5.2568206787109375 1.75461181640625 Q 5.2687225341796875 1.7237890625 5.2894744873046875 1.701663818359375 Q 5.3102264404296875 1.67953857421875 5.3379974365234375 1.6670263671875 Q 5.3657684326171875 1.65451416015625 5.3975067138671875 1.65451416015625 Q 5.4274139404296875 1.65451416015625 5.4541168212890625 1.66489013671875 Q 5.4808197021484375 1.67526611328125 5.5009613037109375 1.6963232421875 L 5.5330047607421875 1.6963232421875 L 5.5330047607421875 1.7488134765625 L 5.4756317138671875 1.7488134765625 M 5.7805023193359375 1.829990234375 Q 5.7805023193359375 1.84341796875 5.7824859619140625 1.854556884765625 Q 5.7844696044921875 1.86569580078125 5.7881317138671875 1.8757666015625 Q 5.7994232177734375 1.9062841796875 5.8242950439453125 1.921695556640625 Q 5.8491668701171875 1.93710693359375 5.8805999755859375 1.93710693359375 Q 5.9053192138671875 1.93710693359375 5.9286651611328125 1.930240478515625 Q 5.9520111083984375 1.9233740234375 5.9776458740234375 1.9087255859375 L 6.0005340576171875 1.94748291015625 Q 5.9694061279296875 1.96884521484375 5.9379730224609375 1.97922119140625 Q 5.9065399169921875 1.98959716796875 5.8726654052734375 1.98959716796875 Q 5.8406219482421875 1.98959716796875 5.8133087158203125 1.978916015625 Q 5.7859954833984375 1.96823486328125 5.7663116455078125 1.947177734375 Q 5.7466278076171875 1.92612060546875 5.7354888916015625 1.8946875 Q 5.7243499755859375 1.86325439453125 5.7243499755859375 1.8214453125 Q 5.7243499755859375 1.78757080078125 5.7338104248046875 1.757510986328125 Q 5.7432708740234375 1.727451171875 5.7620391845703125 1.705020751953125 Q 5.7808074951171875 1.68259033203125 5.8085784912109375 1.6694677734375 Q 5.8363494873046875 1.65634521484375 5.8732757568359375 1.65634521484375 Q 5.9089813232421875 1.65634521484375 5.9329376220703125 1.667178955078125 Q 5.9568939208984375 1.6780126953125 5.9720001220703125 1.695865478515625 Q 5.9871063232421875 1.71371826171875 5.9948883056640625 1.7366064453125 Q 6.0026702880859375 1.75949462890625 6.0057220458984375 1.78329833984375 Q 6.0072479248046875 1.79489501953125 6.0077056884765625 1.806796875 Q 6.0081634521484375 1.81869873046875 6.0081634521484375 1.829990234375 L 5.7805023193359375 1.829990234375 M 5.8693084716796875 1.70395263671875 Q 5.8494720458984375 1.70395263671875 5.8346710205078125 1.709598388671875 Q 5.8198699951171875 1.715244140625 5.8094940185546875 1.725772705078125 Q 5.7991180419921875 1.73630126953125 5.7928619384765625 1.75156005859375 Q 5.7866058349609375 1.76681884765625 5.7835540771484375 1.78573974609375 L 5.9474334716796875 1.78573974609375 Q 5.9462127685546875 1.76803955078125 5.9417877197265625 1.7530859375 Q 5.9373626708984375 1.73813232421875 5.9282073974609375 1.72714599609375 Q 5.9190521240234375 1.71615966796875 5.9047088623046875 1.71005615234375 Q 5.8903656005859375 1.70395263671875 5.8693084716796875 1.70395263671875 M 6.1905059814453125 1.6645849609375 L 6.2637481689453125 1.6645849609375 L 6.2637481689453125 1.71066650390625 L 6.1905059814453125 1.71066650390625 L 6.1905059814453125 1.9282568359375 L 6.2399444580078125 1.9282568359375 L 6.2399444580078125 1.9807470703125 L 6.0861358642578125 1.9807470703125 L 6.0861358642578125 1.9282568359375 L 6.1337432861328125 1.9282568359375 L 6.1337432861328125 1.71066650390625 L 6.0815582275390625 1.71066650390625 L 6.0815582275390625 1.6645849609375 L 6.1337432861328125 1.6645849609375 L 6.1337432861328125 1.615146484375 Q 6.1343536376953125 1.5876806640625 6.1416778564453125 1.56723388671875 Q 6.1490020751953125 1.546787109375 6.1624298095703125 1.53305419921875 Q 6.1758575439453125 1.5193212890625 6.1947784423828125 1.512607421875 Q 6.2136993408203125 1.5058935546875 6.2368927001953125 1.5058935546875 Q 6.2530670166015625 1.5058935546875 6.2658843994140625 1.50741943359375 Q 6.2787017822265625 1.5089453125 6.2887725830078125 1.511539306640625 Q 6.2988433837890625 1.51413330078125 6.3066253662109375 1.51718505859375 Q 6.3144073486328125 1.52023681640625 6.3205108642578125 1.52328857421875 L 6.3031158447265625 1.563876953125 Q 6.2933502197265625 1.55868896484375 6.2776336669921875 1.55502685546875 Q 6.2619171142578125 1.55136474609375 6.2448272705078125 1.55136474609375 Q 6.2194976806640625 1.55136474609375 6.2050018310546875 1.567081298828125 Q 6.1905059814453125 1.5827978515625 6.1905059814453125 1.6133154296875 L 6.1905059814453125 1.6645849609375 M 6.4186248779296875 1.6645849609375 L 6.4918670654296875 1.6645849609375 L 6.4918670654296875 1.71066650390625 L 6.4186248779296875 1.71066650390625 L 6.4186248779296875 1.9282568359375 L 6.4680633544921875 1.9282568359375 L 6.4680633544921875 1.9807470703125 L 6.3142547607421875 1.9807470703125 L 6.3142547607421875 1.9282568359375 L 6.3618621826171875 1.9282568359375 L 6.3618621826171875 1.71066650390625 L 6.3096771240234375 1.71066650390625 L 6.3096771240234375 1.6645849609375 L 6.3618621826171875 1.6645849609375 L 6.3618621826171875 1.615146484375 Q 6.3624725341796875 1.5876806640625 6.3697967529296875 1.56723388671875 Q 6.3771209716796875 1.546787109375 6.3905487060546875 1.53305419921875 Q 6.4039764404296875 1.5193212890625 6.4228973388671875 1.512607421875 Q 6.4418182373046875 1.5058935546875 6.4650115966796875 1.5058935546875 Q 6.4811859130859375 1.5058935546875 6.4940032958984375 1.50741943359375 Q 6.5068206787109375 1.5089453125 6.5168914794921875 1.511539306640625 Q 6.5269622802734375 1.51413330078125 6.5347442626953125 1.51718505859375 Q 6.5425262451171875 1.52023681640625 6.5486297607421875 1.52328857421875 L 6.5312347412109375 1.563876953125 Q 6.5214691162109375 1.55868896484375 6.5057525634765625 1.55502685546875 Q 6.4900360107421875 1.55136474609375 6.4729461669921875 1.55136474609375 Q 6.4476165771484375 1.55136474609375 6.4331207275390625 1.567081298828125 Q 6.4186248779296875 1.5827978515625 6.4186248779296875 1.6133154296875 L 6.4186248779296875 1.6645849609375 M 6.5399322509765625 1.6645849609375 L 6.6430816650390625 1.6645849609375 L 6.6430816650390625 1.9282568359375 L 6.6906890869140625 1.9282568359375 L 6.6906890869140625 1.9807470703125 L 6.5405426025390625 1.9807470703125 L 6.5405426025390625 1.9282568359375 L 6.5857086181640625 1.9282568359375 L 6.5857086181640625 1.7170751953125 L 6.5399322509765625 1.7170751953125 L 6.5399322509765625 1.6645849609375 M 6.5750274658203125 1.55258544921875 Q 6.5750274658203125 1.54465087890625 6.5782318115234375 1.537479248046875 Q 6.5814361572265625 1.5303076171875 6.5867767333984375 1.524967041015625 Q 6.5921173095703125 1.51962646484375 6.5994415283203125 1.516422119140625 Q 6.6067657470703125 1.5132177734375 6.6150054931640625 1.5132177734375 Q 6.6229400634765625 1.5132177734375 6.6301116943359375 1.516422119140625 Q 6.6372833251953125 1.51962646484375 6.6426239013671875 1.524967041015625 Q 6.6479644775390625 1.5303076171875 6.6511688232421875 1.537479248046875 Q 6.6543731689453125 1.54465087890625 6.6543731689453125 1.55258544921875 Q 6.6543731689453125 1.5608251953125 6.6511688232421875 1.5681494140625 Q 6.6479644775390625 1.5754736328125 6.6426239013671875 1.581119384765625 Q 6.6372833251953125 1.58676513671875 6.6301116943359375 1.589969482421875 Q 6.6229400634765625 1.593173828125 6.6150054931640625 1.593173828125 Q 6.6067657470703125 1.593173828125 6.5994415283203125 1.589969482421875 Q 6.5921173095703125 1.58676513671875 6.5867767333984375 1.581119384765625 Q 6.5814361572265625 1.5754736328125 6.5782318115234375 1.5681494140625 Q 6.5750274658203125 1.5608251953125 6.5750274658203125 1.55258544921875 M 6.9719085693359375 1.7488134765625 Q 6.9590911865234375 1.72592529296875 6.9394073486328125 1.715244140625 Q 6.9197235107421875 1.70456298828125 6.8937835693359375 1.70456298828125 Q 6.8739471435546875 1.70456298828125 6.8565521240234375 1.712802734375 Q 6.8391571044921875 1.72104248046875 6.8261871337890625 1.73630126953125 Q 6.8132171630859375 1.75156005859375 6.8057403564453125 1.773380126953125 Q 6.7982635498046875 1.7952001953125 6.7982635498046875 1.8220556640625 Q 6.7982635498046875 1.84860595703125 6.8057403564453125 1.86996826171875 Q 6.8132171630859375 1.89133056640625 6.8263397216796875 1.906436767578125 Q 6.8394622802734375 1.92154296875 6.8567047119140625 1.929630126953125 Q 6.8739471435546875 1.93771728515625 6.8937835693359375 1.93771728515625 Q 6.9230804443359375 1.93771728515625 6.9447479248046875 1.923526611328125 Q 6.9664154052734375 1.9093359375 6.9792327880859375 1.8818701171875 L 7.0262298583984375 1.9050634765625 Q 7.0170745849609375 1.9245947265625 7.0036468505859375 1.94015869140625 Q 6.9902191162109375 1.95572265625 6.9732818603515625 1.966708984375 Q 6.9563446044921875 1.9776953125 6.9360504150390625 1.983646240234375 Q 6.9157562255859375 1.98959716796875 6.8931732177734375 1.98959716796875 Q 6.8602142333984375 1.98959716796875 6.8322906494140625 1.977237548828125 Q 6.8043670654296875 1.9648779296875 6.7840728759765625 1.94260009765625 Q 6.7637786865234375 1.920322265625 6.7524871826171875 1.88949951171875 Q 6.7411956787109375 1.8586767578125 6.7411956787109375 1.8220556640625 Q 6.7411956787109375 1.7854345703125 6.7530975341796875 1.75461181640625 Q 6.7649993896484375 1.7237890625 6.7857513427734375 1.701663818359375 Q 6.8065032958984375 1.67953857421875 6.8342742919921875 1.6670263671875 Q 6.8620452880859375 1.65451416015625 6.8937835693359375 1.65451416015625 Q 6.9236907958984375 1.65451416015625 6.9503936767578125 1.66489013671875 Q 6.9770965576171875 1.67526611328125 6.9972381591796875 1.6963232421875 L 7.0292816162109375 1.6963232421875 L 7.0292816162109375 1.7488134765625 L 6.9719085693359375 1.7488134765625 M 7.0831451416015625 1.6645849609375 L 7.1862945556640625 1.6645849609375 L 7.1862945556640625 1.9282568359375 L 7.2339019775390625 1.9282568359375 L 7.2339019775390625 1.9807470703125 L 7.0837554931640625 1.9807470703125 L 7.0837554931640625 1.9282568359375 L 7.1289215087890625 1.9282568359375 L 7.1289215087890625 1.7170751953125 L 7.0831451416015625 1.7170751953125 L 7.0831451416015625 1.6645849609375 M 7.1182403564453125 1.55258544921875 Q 7.1182403564453125 1.54465087890625 7.1214447021484375 1.537479248046875 Q 7.1246490478515625 1.5303076171875 7.1299896240234375 1.524967041015625 Q 7.1353302001953125 1.51962646484375 7.1426544189453125 1.516422119140625 Q 7.1499786376953125 1.5132177734375 7.1582183837890625 1.5132177734375 Q 7.1661529541015625 1.5132177734375 7.1733245849609375 1.516422119140625 Q 7.1804962158203125 1.51962646484375 7.1858367919921875 1.524967041015625 Q 7.1911773681640625 1.5303076171875 7.1943817138671875 1.537479248046875 Q 7.1975860595703125 1.54465087890625 7.1975860595703125 1.55258544921875 Q 7.1975860595703125 1.5608251953125 7.1943817138671875 1.5681494140625 Q 7.1911773681640625 1.5754736328125 7.1858367919921875 1.581119384765625 Q 7.1804962158203125 1.58676513671875 7.1733245849609375 1.589969482421875 Q 7.1661529541015625 1.593173828125 7.1582183837890625 1.593173828125 Q 7.1499786376953125 1.593173828125 7.1426544189453125 1.589969482421875 Q 7.1353302001953125 1.58676513671875 7.1299896240234375 1.581119384765625 Q 7.1246490478515625 1.5754736328125 7.1214447021484375 1.5681494140625 Q 7.1182403564453125 1.5608251953125 7.1182403564453125 1.55258544921875 M 7.3405609130859375 1.829990234375 Q 7.3405609130859375 1.84341796875 7.3425445556640625 1.854556884765625 Q 7.3445281982421875 1.86569580078125 7.3481903076171875 1.8757666015625 Q 7.3594818115234375 1.9062841796875 7.3843536376953125 1.921695556640625 Q 7.4092254638671875 1.93710693359375 7.4406585693359375 1.93710693359375 Q 7.4653778076171875 1.93710693359375 7.4887237548828125 1.930240478515625 Q 7.5120697021484375 1.9233740234375 7.5377044677734375 1.9087255859375 L 7.5605926513671875 1.94748291015625 Q 7.5294647216796875 1.96884521484375 7.4980316162109375 1.97922119140625 Q 7.4665985107421875 1.98959716796875 7.4327239990234375 1.98959716796875 Q 7.4006805419921875 1.98959716796875 7.3733673095703125 1.978916015625 Q 7.3460540771484375 1.96823486328125 7.3263702392578125 1.947177734375 Q 7.3066864013671875 1.92612060546875 7.2955474853515625 1.8946875 Q 7.2844085693359375 1.86325439453125 7.2844085693359375 1.8214453125 Q 7.2844085693359375 1.78757080078125 7.2938690185546875 1.757510986328125 Q 7.3033294677734375 1.727451171875 7.3220977783203125 1.705020751953125 Q 7.3408660888671875 1.68259033203125 7.3686370849609375 1.6694677734375 Q 7.3964080810546875 1.65634521484375 7.4333343505859375 1.65634521484375 Q 7.4690399169921875 1.65634521484375 7.4929962158203125 1.667178955078125 Q 7.5169525146484375 1.6780126953125 7.5320587158203125 1.695865478515625 Q 7.5471649169921875 1.71371826171875 7.5549468994140625 1.7366064453125 Q 7.5627288818359375 1.75949462890625 7.5657806396484375 1.78329833984375 Q 7.5673065185546875 1.79489501953125 7.5677642822265625 1.806796875 Q 7.5682220458984375 1.81869873046875 7.5682220458984375 1.829990234375 L 7.3405609130859375 1.829990234375 M 7.4293670654296875 1.70395263671875 Q 7.4095306396484375 1.70395263671875 7.3947296142578125 1.709598388671875 Q 7.3799285888671875 1.715244140625 7.3695526123046875 1.725772705078125 Q 7.3591766357421875 1.73630126953125 7.3529205322265625 1.75156005859375 Q 7.3466644287109375 1.76681884765625 7.3436126708984375 1.78573974609375 L 7.5074920654296875 1.78573974609375 Q 7.5062713623046875 1.76803955078125 7.5018463134765625 1.7530859375 Q 7.4974212646484375 1.73813232421875 7.4882659912109375 1.72714599609375 Q 7.4791107177734375 1.71615966796875 7.4647674560546875 1.71005615234375 Q 7.4504241943359375 1.70395263671875 7.4293670654296875 1.70395263671875 M 7.8543243408203125 1.9282568359375 L 7.8988800048828125 1.9282568359375 L 7.8988800048828125 1.78390869140625 Q 7.8988800048828125 1.7475927734375 7.8804168701171875 1.728824462890625 Q 7.8619537353515625 1.71005615234375 7.8274688720703125 1.71005615234375 Q 7.8076324462890625 1.71005615234375 7.7874908447265625 1.7195166015625 Q 7.7673492431640625 1.72897705078125 7.7493438720703125 1.74301513671875 L 7.7493438720703125 1.9282568359375 L 7.7938995361328125 1.9282568359375 L 7.7938995361328125 1.9807470703125 L 7.6461944580078125 1.9807470703125 L 7.6461944580078125 1.9282568359375 L 7.6901397705078125 1.9282568359375 L 7.6901397705078125 1.7170751953125 L 7.6461944580078125 1.7170751953125 L 7.6461944580078125 1.6645849609375 L 7.7469024658203125 1.6645849609375 L 7.7469024658203125 1.70181640625 L 7.7475128173828125 1.70181640625 Q 7.7575836181640625 1.69296630859375 7.7690277099609375 1.68503173828125 Q 7.7804718017578125 1.67709716796875 7.7929840087890625 1.671298828125 Q 7.8054962158203125 1.66550048828125 7.8190765380859375 1.6621435546875 Q 7.8326568603515625 1.65878662109375 7.8476104736328125 1.65878662109375 Q 7.8729400634765625 1.65878662109375 7.8933868408203125 1.6658056640625 Q 7.9138336181640625 1.67282470703125 7.9281768798828125 1.68716796875 Q 7.9425201416015625 1.70151123046875 7.9503021240234375 1.723941650390625 Q 7.9580841064453125 1.7463720703125 7.9580841064453125 1.7768896484375 L 7.9580841064453125 1.9282568359375 L 8.002029418945312 1.9282568359375 L 8.002029418945312 1.9807470703125 L 7.8543243408203125 1.9807470703125 L 7.8543243408203125 1.9282568359375 M 8.292098999023438 1.7488134765625 Q 8.279281616210938 1.72592529296875 8.259597778320312 1.715244140625 Q 8.239913940429688 1.70456298828125 8.213973999023438 1.70456298828125 Q 8.194137573242188 1.70456298828125 8.176742553710938 1.712802734375 Q 8.159347534179688 1.72104248046875 8.146377563476562 1.73630126953125 Q 8.133407592773438 1.75156005859375 8.125930786132812 1.773380126953125 Q 8.118453979492188 1.7952001953125 8.118453979492188 1.8220556640625 Q 8.118453979492188 1.84860595703125 8.125930786132812 1.86996826171875 Q 8.133407592773438 1.89133056640625 8.146530151367188 1.906436767578125 Q 8.159652709960938 1.92154296875 8.176895141601562 1.929630126953125 Q 8.194137573242188 1.93771728515625 8.213973999023438 1.93771728515625 Q 8.243270874023438 1.93771728515625 8.264938354492188 1.923526611328125 Q 8.286605834960938 1.9093359375 8.299423217773438 1.8818701171875 L 8.346420288085938 1.9050634765625 Q 8.337265014648438 1.9245947265625 8.323837280273438 1.94015869140625 Q 8.310409545898438 1.95572265625 8.293472290039062 1.966708984375 Q 8.276535034179688 1.9776953125 8.256240844726562 1.983646240234375 Q 8.235946655273438 1.98959716796875 8.213363647460938 1.98959716796875 Q 8.180404663085938 1.98959716796875 8.152481079101562 1.977237548828125 Q 8.124557495117188 1.9648779296875 8.104263305664062 1.94260009765625 Q 8.083969116210938 1.920322265625 8.072677612304688 1.88949951171875 Q 8.061386108398438 1.8586767578125 8.061386108398438 1.8220556640625 Q 8.061386108398438 1.7854345703125 8.073287963867188 1.75461181640625 Q 8.085189819335938 1.7237890625 8.105941772460938 1.701663818359375 Q 8.126693725585938 1.67953857421875 8.154464721679688 1.6670263671875 Q 8.182235717773438 1.65451416015625 8.213973999023438 1.65451416015625 Q 8.243881225585938 1.65451416015625 8.270584106445312 1.66489013671875 Q 8.297286987304688 1.67526611328125 8.317428588867188 1.6963232421875 L 8.349472045898438 1.6963232421875 L 8.349472045898438 1.7488134765625 L 8.292098999023438 1.7488134765625 M 8.384719848632812 1.6645849609375 L 8.504653930664062 1.6645849609375 L 8.504653930664062 1.7170751953125 L 8.467117309570312 1.7170751953125 L 8.541275024414062 1.91879638671875 L 8.618789672851562 1.7170751953125 L 8.581558227539062 1.7170751953125 L 8.581558227539062 1.6645849609375 L 8.701492309570312 1.6645849609375 L 8.701492309570312 1.7170751953125 L 8.668838500976562 1.7170751953125 L 8.528152465820312 2.07199462890625 L 8.571487426757812 2.07199462890625 L 8.571487426757812 2.12448486328125 L 8.443923950195312 2.12448486328125 L 8.443923950195312 2.07199462890625 L 8.482376098632812 2.07199462890625 L 8.515945434570312 1.98501953125 L 8.410354614257812 1.7170751953125 L 8.384719848632812 1.7170751953125 L 8.384719848632812 1.6645849609375" fill="#56a41d" fill-rule="nonzero"></path></g></g><defs><clipPath id="SvgjsClipPath1001"><path d=" M 0.8508440019412467 -10.058752571378827 h 9.624483871117507 v 9.808752571378827 h -9.624483871117507 Z"></path></clipPath><clipPath id="SvgjsClipPath1000c6913cb1-5245-40cf-af51-6c604d50b037"><path d=" M 0.8508440019412467 -10.058752571378827 L 10.475327873058752 -10.058752571378827 L 10.475327873058752 -0.25 L 0.8508440019412467 -0.25 Z"></path></clipPath></defs></svg>